<svg xmlns="http://www.w3.org/2000/svg" width="40" height="40" viewBox="0 0 40 40">
  <defs>
    <style>
      .cls-1 {
        fill: #004990;
        fill-rule: evenodd;
      }
    </style>
  </defs>
  <path id="corporate_reg_icon" class="cls-1" d="M1435.92,1403h-2.31l-0.08-.31c-0.04-.16-0.08-0.32-0.11-0.47a3.521,3.521,0,0,0-.24-0.85,16.1,16.1,0,0,1-1.72-5.27,0.558,0.558,0,0,0-.1-0.28c-1.7-1.69-1-3.5-.38-5.1l0.09-.24c0.03-.07.06-0.13,0.09-0.19l0.03-.06q-0.135-.465-0.24-0.93a4.971,4.971,0,0,0-.79-2.05,3.4,3.4,0,0,1-1-3.53c-0.18-.04-0.34-0.08-0.5-0.1a1.484,1.484,0,0,0-.23-0.01,0.882,0.882,0,0,1-.76-0.24,0.935,0.935,0,0,0-1.24-.18,3.451,3.451,0,0,1-.72.18c-1.19.13-2.38,0.2-3.7,0.27a1.139,1.139,0,0,1-.78-0.32c-0.33-.28-0.69-0.54-1.04-0.8a11.326,11.326,0,0,1-2.47-2.26,4.722,4.722,0,0,1-.58-2.57,8.9,8.9,0,0,0-.06-0.93,2.055,2.055,0,0,1,.08-0.67,1.158,1.158,0,0,0,.06-0.33,2.1,2.1,0,0,1,.47-2.45c0.66-.8,1.32-1.62,1.95-2.41l0.52-.65c0.04-.04.07-0.09,0.11-0.13a0.6,0.6,0,0,0,.08-0.08,4.933,4.933,0,0,1,1.29-2.61,5.315,5.315,0,0,0,1.01-1.63l0.26-.8,0.47,0.69c0.68,1.01.68,1.01,1.93,0.65l0.16-.05a28.536,28.536,0,0,1,3.66-.7c0.54-.07,1.1-0.16,1.66-0.25l0.44-.08,0.04,0.46c0.02,0.26.03,0.5,0.04,0.71a6.035,6.035,0,0,0,.1,1.05,1.328,1.328,0,0,0,.27.67,12.315,12.315,0,0,0,1.48.58c0.31,0.11.62,0.22,0.93,0.34a0.564,0.564,0,0,0,.36.05,0.436,0.436,0,0,0,.15-0.25,1.149,1.149,0,0,1,1.62-.77c0.5,0.15,1.03.29,1.54,0.41,0.4,0.11.82,0.21,1.23,0.32a4.31,4.31,0,0,1,2.94,2.67,15.663,15.663,0,0,0,.71,1.42c0.23,0.42.47,0.85,0.67,1.3,0.24,0.53.44,1.08,0.63,1.62,0.16,0.43.33,0.88,0.51,1.31a2.6,2.6,0,0,0,.5.7l0.09,0.11a1.942,1.942,0,0,0,.25.23,1.8,1.8,0,0,1,.53.62c0.27,0.59.58,0.68,1.41,0.39,0.05-.02.1-0.04,0.16-0.07a0.886,0.886,0,0,1,.17-0.08c0.1-.04.21-0.1,0.33-0.16,0.52-.26,1.49-0.73,1.96.23a2.864,2.864,0,0,1-.45,2.55c-0.86,1.12-1.81,2.18-2.74,3.21-0.42.47-.85,0.95-1.26,1.42a2.681,2.681,0,0,0-.55,3.27,3.983,3.983,0,0,1-1.6,4.98c-0.16.09-.31,0.18-0.47,0.26l-0.27.15a2.127,2.127,0,0,1-.29,2.23c-0.27.42-.57,0.81-0.86,1.19a10.439,10.439,0,0,0-1.2,1.8,4.467,4.467,0,0,1-3.93,2.69c-0.01,0-.07.03-0.11,0.04a0.351,0.351,0,0,1-.14.06Zm-1.53-1.37h1.47a0.035,0.035,0,0,1,.02-0.01,1.149,1.149,0,0,1,.37-0.12,3.483,3.483,0,0,0,3.16-2.15,11.053,11.053,0,0,1,1.25-1.89c0.28-.36.56-0.73,0.8-1.1,0.44-.68.48-1.11,0.12-1.5l-0.24-.26,0.22-.27a0.555,0.555,0,0,1,.06-0.08,0.7,0.7,0,0,1,.21-0.21c0.16-.09.31-0.17,0.46-0.26s0.29-.16.44-0.24a3.051,3.051,0,0,0,1.23-3.77,3.414,3.414,0,0,1,.65-4.06c0.41-.47.83-0.94,1.23-1.39,0.89-.99,1.81-2.01,2.62-3.07a2.031,2.031,0,0,0,.35-1.62c-0.07-.14-0.14-0.2-0.84.15-0.12.06-.25,0.12-0.37,0.17l-0.12.06c-0.07.03-.15,0.07-0.24,0.1a1.639,1.639,0,0,1-2.35-.81,1.143,1.143,0,0,0-.29-0.3,3.534,3.534,0,0,1-.35-0.33l-0.08-.1a3.188,3.188,0,0,1-.61-0.89c-0.19-.43-0.35-0.88-0.51-1.31-0.18-.51-0.37-1.03-0.59-1.52-0.18-.4-0.4-0.81-0.62-1.2a13.1,13.1,0,0,1-.73-1.45,3.438,3.438,0,0,0-2.33-2.13c-0.39-.1-0.79-0.21-1.18-0.3-0.5-.13-1.02-0.26-1.52-0.41s-0.51-.06-0.59.2a1.154,1.154,0,0,1-.56.74,1.239,1.239,0,0,1-.98-0.02c-0.28-.12-0.58-0.22-0.87-0.32a11.661,11.661,0,0,1-1.54-.6,1.632,1.632,0,0,1-.68-1.21,6.539,6.539,0,0,1-.12-1.14,1.927,1.927,0,0,0-.01-0.24c-0.4.07-.81,0.12-1.2,0.18a26.183,26.183,0,0,0-3.44.66l-0.15.04c-1.2.35-1.66,0.43-2.34-.38a8.157,8.157,0,0,1-.82,1.17,4.081,4.081,0,0,0-1.09,2.13,0.852,0.852,0,0,1-.28.53c-0.02.03-.05,0.05-0.07,0.08l-0.5.62c-0.62.78-1.26,1.58-1.9,2.36a1.246,1.246,0,0,0-.35,1.51,1.333,1.333,0,0,1,0,.86,1.073,1.073,0,0,0-.06.36c0.03,0.31.05,0.64,0.06,0.96a4.033,4.033,0,0,0,.41,2.05,10.1,10.1,0,0,0,2.22,2.02c0.35,0.25.71,0.52,1.04,0.79a0.551,0.551,0,0,0,.23.14c1.25-.07,2.39-0.13,3.53-0.26a2.615,2.615,0,0,0,.55-0.14,1.669,1.669,0,0,1,2,.37h0.17a2.234,2.234,0,0,1,.36.02c0.21,0.03.41,0.08,0.64,0.13,0.1,0.02.22,0.05,0.34,0.08l0.49,0.1-0.21.46c-0.57,1.23-.21,2.01.66,3.01a5.455,5.455,0,0,1,.94,2.34c0.08,0.32.15,0.63,0.24,0.93a0.743,0.743,0,0,1-.11.6c-0.01.03-.03,0.06-0.04,0.09l-0.09.24c-0.59,1.51-1.09,2.81.19,4.08a1.352,1.352,0,0,1,.32.76,15,15,0,0,0,1.6,4.84,4.75,4.75,0,0,1,.3,1.02A0.516,0.516,0,0,0,1434.39,1401.63Zm-14.04-31.54h0Zm26.09,28.07a1.225,1.225,0,0,1-.19-0.02,1.736,1.736,0,0,1-1.16-.73,1.545,1.545,0,0,1-.18-1.16c0.04-.15.07-0.29,0.11-0.44a3.691,3.691,0,0,0,.07-2.34,1.086,1.086,0,0,1,.35-0.99c0.65-.63,1.29-1.24,1.97-1.87l0.67-.64,0.37-.35,0.26,0.44a5.072,5.072,0,0,1,.37,4.07,22.686,22.686,0,0,1-1.26,3.3A1.671,1.671,0,0,1,1446.44,1398.16Zm-0.29-4.71a3.491,3.491,0,0,1-.06,2.15c-0.02.11-.05,0.22-0.07,0.33a0.489,0.489,0,0,0,.05.4,0.7,0.7,0,0,0,.49.29,0.786,0.786,0,0,0,.53-0.2,15.5,15.5,0,0,0,.94-2.47,3.435,3.435,0,0,0-.04-2.29c-0.08.07-.15,0.13-0.22,0.2-0.52.5-1.02,0.96-1.52,1.45A0.608,0.608,0,0,0,1446.15,1393.45Z" transform="translate(-1413.5 -1364)"/>
</svg>
