<svg xmlns="http://www.w3.org/2000/svg" width="36" height="36" viewBox="0 0 36 36">
  <defs>
    <style>
      .cls-1 {
        fill: #fff;
        fill-rule: evenodd;
        opacity: 0.8;
      }
    </style>
  </defs>
  <path id="facebook" class="cls-1" d="M1308.08,196.514l-2.64-.005c-2.96,0-4.87,2.026-4.87,5.162v2.38h-2.65a0.425,0.425,0,0,0-.42.428v3.448a0.425,0.425,0,0,0,.42.428h2.65v8.7a0.417,0.417,0,0,0,.41.428h3.46a0.426,0.426,0,0,0,.42-0.428v-8.7h3.1a0.423,0.423,0,0,0,.41-0.428v-3.448a0.425,0.425,0,0,0-.12-0.3,0.405,0.405,0,0,0-.29-0.125h-3.1v-2.018a1.2,1.2,0,0,1,1.44-1.462h1.78a0.417,0.417,0,0,0,.41-0.428v-3.2A0.417,0.417,0,0,0,1308.08,196.514ZM1303,225a18,18,0,1,1,18-18A18,18,0,0,1,1303,225Zm-0.08-35a16.92,16.92,0,1,0,16.92,16.919A16.922,16.922,0,0,0,1302.92,190Z" transform="translate(-1285 -189)"/>
</svg>
