<svg xmlns="http://www.w3.org/2000/svg" width="36" height="36" viewBox="0 0 36 36">
  <defs>
    <style>
      .cls-1 {
        fill: #fff;
        fill-rule: evenodd;
        opacity: 0.8;
      }
    </style>
  </defs>
  <path id="linkedin" class="cls-1" d="M1423.89,208.868v6.416h-3.82V209.3c0-1.5-.55-2.53-1.93-2.53a2.071,2.071,0,0,0-1.95,1.36,2.306,2.306,0,0,0-.13.908v6.249h-3.82s0.06-10.139,0-11.19h3.82v1.586l-0.03.037h0.03V205.68a3.807,3.807,0,0,1,3.44-1.848C1422,203.832,1423.89,205.43,1423.89,208.868ZM1408.26,198.7a1.943,1.943,0,1,0-.06,3.867h0.03A1.944,1.944,0,1,0,1408.26,198.7Zm-1.94,16.584h3.82v-11.19h-3.82v11.19ZM1415,225a18,18,0,1,1,18-18A18,18,0,0,1,1415,225Zm-0.08-35a16.92,16.92,0,1,0,16.92,16.919A16.922,16.922,0,0,0,1414.92,190Z" transform="translate(-1397 -189)"/>
</svg>
