<?xml version="1.0" encoding="utf-8"?>
<!-- Generator: Adobe Illustrator 20.1.0, SVG Export Plug-In . SVG Version: 6.00 Build 0)  -->
<svg version="1.1" id="Layer_1" xmlns="http://www.w3.org/2000/svg" xmlns:xlink="http://www.w3.org/1999/xlink" x="0px" y="0px"
	 viewBox="0 0 727.5 192" style="enable-background:new 0 0 727.5 192;" xml:space="preserve">
<style type="text/css">
	.st0{fill-rule:evenodd;clip-rule:evenodd;fill:#FFFFFF;}
	.st1{fill:#FFFFFF;}
	.st2{fill-rule:evenodd;clip-rule:evenodd;fill:#003D71;}
	.st3{fill-rule:evenodd;clip-rule:evenodd;fill:#D11242;}
</style>
<g>
	<polygon class="st0" points="113.9,164.4 113.9,133.4 121.5,133.4 121.5,159.1 140.4,159.1 140.4,164.4 	"/>
	<rect x="150.3" y="137.5" class="st0" width="6.6" height="27"/>
	<path class="st0" d="M175.3,152.6v7.2h6.1c2.4,0,3.9-0.1,4.5-0.2c1-0.2,1.8-0.5,2.4-1.1c0.6-0.6,0.9-1.3,0.9-2.3
		c0-0.8-0.2-1.5-0.7-2.1c-0.5-0.6-1.2-1-2-1.2c-0.9-0.3-2.8-0.4-5.8-0.4H175.3z M175.3,141.9v6.2h4.3c2.5,0,4.1,0,4.7-0.1
		c1.1-0.1,2-0.4,2.6-1c0.6-0.5,1-1.2,1-2.1c0-0.8-0.3-1.5-0.8-2c-0.5-0.5-1.4-0.8-2.5-0.9c-0.6-0.1-2.5-0.1-5.6-0.1H175.3z
		 M168.7,137.5h13c2.6,0,4.5,0.1,5.7,0.3c1.3,0.2,2.4,0.5,3.4,1.1c1,0.6,1.8,1.3,2.5,2.2c0.7,0.9,1,2,1,3.1c0,1.3-0.4,2.4-1.2,3.5
		c-0.8,1.1-1.9,1.8-3.3,2.4c2,0.5,3.5,1.3,4.5,2.5c1.1,1.2,1.6,2.5,1.6,4.1c0,1.2-0.3,2.4-1,3.6c-0.7,1.2-1.6,2.1-2.8,2.8
		c-1.2,0.7-2.6,1.1-4.4,1.3c-1.1,0.1-3.7,0.2-7.9,0.2h-11V137.5z"/>
	<polygon class="st0" points="207.1,164.4 207.1,137.5 231,137.5 231,142 213.6,142 213.6,148 229.8,148 229.8,152.6 213.6,152.6 
		213.6,159.9 231.7,159.9 231.7,164.4 	"/>
	<path class="st0" d="M249.4,148.9h4.8c3.1,0,5.1-0.1,5.9-0.3c0.8-0.2,1.4-0.6,1.8-1.1c0.4-0.5,0.7-1.2,0.7-2c0-0.9-0.3-1.6-0.9-2.2
		c-0.6-0.6-1.4-0.9-2.5-1.1c-0.5-0.1-2.1-0.1-4.8-0.1h-5.1V148.9z M242.8,164.4v-27h13.8c3.5,0,6,0.2,7.5,0.7
		c1.6,0.5,2.8,1.3,3.8,2.6c0.9,1.2,1.4,2.7,1.4,4.3c0,2-0.7,3.7-2.1,5c-1.4,1.3-3.6,2.1-6.4,2.5c1.4,0.7,2.6,1.4,3.5,2.3
		c0.9,0.8,2.2,2.3,3.7,4.4l4,5.3h-7.8l-4.7-5.9c-1.7-2.1-2.8-3.4-3.5-4c-0.6-0.5-1.3-0.9-2-1.1c-0.7-0.2-1.8-0.3-3.3-0.3h-1.3v11.3
		H242.8z"/>
	<rect x="281" y="137.5" class="st0" width="6.6" height="27"/>
	<path class="st0" d="M316.6,153.7l-4.5-10l-4.4,10H316.6z M328.5,164.4h-7.1l-2.8-6.1h-13l-2.7,6.1h-6.9l12.6-27h6.9L328.5,164.4z"
		/>
	<polygon class="st0" points="337.7,164.4 337.7,137.5 344.1,137.5 357.4,155.5 357.4,137.5 363.5,137.5 363.5,164.4 356.9,164.4 
		343.8,146.7 343.8,164.4 	"/>
	<path class="st0" d="M399.8,146.4h5.6c3.6,0,5.9-0.1,6.8-0.4c0.9-0.3,1.6-0.7,2.1-1.3c0.5-0.6,0.8-1.4,0.8-2.4c0-1.1-0.3-1.9-1-2.6
		c-0.7-0.7-1.6-1.1-2.9-1.2c-0.6-0.1-2.5-0.1-5.5-0.1h-5.9V146.4z M392.2,164.4v-31.3h16c4,0,6.9,0.3,8.8,0.8c1.8,0.6,3.3,1.6,4.4,3
		c1.1,1.4,1.6,3.1,1.6,4.9c0,2.4-0.8,4.3-2.5,5.8c-1.7,1.5-4.1,2.5-7.4,2.9c1.6,0.8,3,1.7,4,2.6c1.1,1,2.5,2.7,4.3,5.1l4.6,6.1h-9.1
		l-5.4-6.8c-2-2.4-3.3-4-4-4.6c-0.7-0.6-1.5-1.1-2.3-1.3c-0.8-0.2-2.1-0.4-3.8-0.4h-1.5v13.1H392.2z"/>
	<polygon class="st0" points="434.8,164.4 434.8,137.5 458.8,137.5 458.8,142 441.4,142 441.4,148 457.6,148 457.6,152.6 
		441.4,152.6 441.4,159.9 459.4,159.9 459.4,164.4 	"/>
	<path class="st0" d="M485.7,154.5V150h14.1v10.8c-1.4,1.1-3.4,2.1-5.9,2.9c-2.6,0.8-5.2,1.3-7.9,1.3c-3.4,0-6.3-0.6-8.9-1.8
		c-2.5-1.2-4.4-2.9-5.7-5.1c-1.3-2.2-1.9-4.6-1.9-7.2c0-2.8,0.7-5.3,2.1-7.5c1.4-2.2,3.5-3.9,6.2-5c2.1-0.9,4.7-1.3,7.8-1.3
		c4,0,7.2,0.7,9.4,2.1c2.3,1.4,3.7,3.4,4.4,5.8l-6.5,1c-0.5-1.3-1.3-2.4-2.6-3.1c-1.3-0.8-2.8-1.1-4.7-1.1c-2.8,0-5.1,0.8-6.8,2.3
		c-1.7,1.5-2.5,3.8-2.5,6.7c0,3.2,0.9,5.6,2.6,7.2c1.7,1.6,3.9,2.4,6.7,2.4c1.4,0,2.7-0.2,4.1-0.7c1.4-0.4,2.6-1,3.5-1.6v-3.4H485.7
		z"/>
	<rect x="511.2" y="137.5" class="st0" width="6.6" height="27"/>
	<path class="st0" d="M527.9,155.7l6.4-0.5c0.4,1.8,1.2,3.1,2.3,3.9c1.2,0.8,2.7,1.2,4.7,1.2c2.1,0,3.7-0.4,4.7-1.1
		c1.1-0.7,1.6-1.6,1.6-2.6c0-0.6-0.2-1.2-0.7-1.6c-0.4-0.4-1.2-0.8-2.3-1.2c-0.8-0.2-2.5-0.6-5.2-1.2c-3.5-0.7-5.9-1.6-7.3-2.7
		c-2-1.5-3-3.3-3-5.4c0-1.4,0.5-2.7,1.4-3.9c0.9-1.2,2.3-2.1,4-2.7c1.8-0.6,3.9-0.9,6.4-0.9c4.1,0,7.1,0.7,9.1,2.2
		c2,1.5,3.1,3.5,3.2,6l-6.6,0.2c-0.3-1.4-0.9-2.4-1.8-3c-0.9-0.6-2.3-0.9-4.1-0.9c-1.9,0-3.4,0.3-4.4,1c-0.7,0.4-1,1-1,1.7
		c0,0.6,0.3,1.2,1,1.6c0.8,0.6,2.8,1.2,6,1.8c3.2,0.6,5.5,1.3,7,1.9c1.5,0.7,2.7,1.6,3.6,2.7c0.9,1.2,1.3,2.6,1.3,4.3
		c0,1.5-0.5,3-1.5,4.3c-1,1.4-2.5,2.4-4.4,3c-1.9,0.7-4.2,1-7,1c-4.1,0-7.2-0.8-9.4-2.4C529.6,161,528.3,158.7,527.9,155.7z"/>
	<polygon class="st0" points="572.7,164.4 572.7,142 563.1,142 563.1,137.5 588.8,137.5 588.8,142 579.2,142 579.2,164.4 	"/>
	<path class="st0" d="M605.3,148.9h4.8c3.1,0,5.1-0.1,5.9-0.3c0.8-0.2,1.4-0.6,1.8-1.1c0.4-0.5,0.7-1.2,0.7-2c0-0.9-0.3-1.6-0.9-2.2
		c-0.6-0.6-1.4-0.9-2.5-1.1c-0.5-0.1-2.1-0.1-4.8-0.1h-5.1V148.9z M598.7,164.4v-27h13.8c3.5,0,6,0.2,7.5,0.7
		c1.6,0.5,2.8,1.3,3.8,2.6c0.9,1.2,1.4,2.7,1.4,4.3c0,2-0.7,3.7-2.1,5c-1.4,1.3-3.6,2.1-6.4,2.5c1.4,0.7,2.6,1.4,3.5,2.3
		c0.9,0.8,2.2,2.3,3.7,4.4l4,5.3H620l-4.7-5.9c-1.7-2.1-2.8-3.4-3.5-4c-0.6-0.5-1.3-0.9-2-1.1c-0.7-0.2-1.8-0.3-3.3-0.3h-1.3v11.3
		H598.7z"/>
	<polygon class="st0" points="644,164.4 644,153.1 632.2,137.5 639.8,137.5 647.5,148.1 655,137.5 662.5,137.5 650.6,153.1 
		650.6,164.4 	"/>
	<g>
		<path class="st0" d="M70.1,122.7c-1.9-1.8-2.9-3.1-4-5.5c-1.3-2.8-1.8-4.6-1.9-7.6V91.9l39.1,0.1V66.7h6.2l2.4-28.6
			c0.6-2,1.2-3.1,2.4-4.8c1.1-1.5,1.9-2.2,3.3-3.3l10.5-1.9c1.3,2.6,1.8,4.3,2.4,7.2c0.5,2.7,0.6,4.4,0.5,7.2l1.9,23.4l11-0.2V50
			l10-0.1l0.2-21.8h7.9l1.4,2.9v18.6h14.2v34.8h6.3l6.7,7.2h183.1l3.8-35.6c0.2-1.7,1.5-3.9,3.6-3.8c2.6,0.1,2.6,1.4,2.8,2.9v35.6
			h177.7l10-6.7h84.9l10-8.6l48.6-0.8l0.8,3.1l-3.4,0.8l-8.4,33.2l9.1,6.7l-1.9,1l-9-7.4l8.9-34l-42.8,0.9l-10.5,8l-86.3,0.5
			l-7.6,5.2H382.2l0.2-35.4c0.1-4.8,0.1-3.6-1.4-3.7c-1.6-0.2-1.8,2.1-2,3.6l-3.6,36.7H191.1l-7.2-7.4h-7.6l0.3-33.4l-14-0.2l0-20.8
			h-5.9v20.6l-10.3-0.2v17.7l-14.9,0.5l-3.1-37.1L117,34.2l-6.3,34.9l-4.5,0.9v26.2l-40.1,0v12.3c0,2.5,0.2,3.9,0.8,6.3
			C67.7,118.1,68.4,119.9,70.1,122.7z"/>
		<path class="st1" d="M69.5,123.5c-2-1.9-3-3.3-4.2-5.8c-1.4-2.9-1.9-4.8-2-8l0-17.8l1-1l38.1,0.1V66.7l1-1h5.3l2.3-27.9
			c0.6-2.1,1.2-3.3,2.5-5.1c1.2-1.6,2-2.4,3.6-3.6l0.4-0.2l10.5-1.9l1.1,0.5c1.3,2.7,1.9,4.4,2.5,7.4c0.5,2.8,0.7,4.5,0.5,7.3
			l1.8,22.4l9-0.2V50l1-1l9-0.1l0.2-20.8l1-1h7.9l0.9,0.6l1.4,2.9l0.1,0.4v17.6h13.2l1,1v33.8h5.3l0.7,0.3l6.4,6.8h181.8l3.7-34.7
			c0.3-2.3,2-4.7,4.4-4.7l0.2,0c3.4,0.2,3.6,2.2,3.7,3.7l0,0.1l0,34.6h176.4L571,83l0.6-0.2h84.5l9.7-8.3l0.6-0.2l48.6-0.8l1,0.7
			l0.8,3.1l-0.7,1.2l-2.8,0.6l-8.1,32l8.5,6.3l-0.1,1.7l-1.9,1l-1.1-0.1l-9-7.4l-0.3-1l8.6-32.7l-41.1,0.9l-10.2,7.8l-0.6,0.2
			l-86,0.5l-7.4,5.1l-0.6,0.2H382.2l-1-1l0.2-35.7c0-1,0-1.9,0-2.4c-0.2,0-0.4,0-0.6,0c0,0,0,0,0,0c-0.5,0-0.7,1.6-0.8,2.3l-0.1,0.4
			l-3.6,36.7l-1,0.9H191.1l-0.7-0.3l-6.9-7.1h-7.2l-1-1l0.3-32.4l-13-0.2l-1-1l0-19.8h-3.9v19.6l-1,1l-9.3-0.2v16.7l-1,1l-14.9,0.5
			l-1-0.9l-3-36.1l-9.7,0.7l-6.2,34.1l-0.8,0.8l-3.7,0.7v25.4l-1,1l-39.1,0v11.3c0,2.4,0.2,3.8,0.8,6.1c0.8,3.1,1.5,4.8,3.1,7.6
			L69.5,123.5z M65.2,92.9v3.2l0.9-0.9l39.1,0V69.9l0.8-1l3.8-0.8l0.2-1l-0.5,0.4h-5.2V92l-1,1L65.2,92.9z M191.5,92.7h182.9
			l0.1-0.9l-0.8,0.7H191.3L191.5,92.7z M561.9,91.4h1.7l7.4-5.1l0.6-0.2l86-0.5l10.2-7.8l0.6-0.2l42.8-0.9l0.7,0.9l0.4-0.4l2.4-0.5
			l-0.3-1.3l-47.5,0.8l-9.7,8.3l-0.7,0.2h-84.6l-9.8,6.5L561.9,91.4z M383.2,91.4h0.6l-0.6-0.6L383.2,91.4z M132.2,66.1l0.3,3.4
			l13-0.5V52.2l1-1l9.3,0.2V31.8l1-1h5.5l-0.9-1.7h-6.3l-0.2,20.8l-1,1l-9,0.1v14.5l-1,1l-11,0.2L132.2,66.1z M112.9,38.3l-2,24
			L116,34l0.9-0.8l11.4-0.8l0.6,0.5c-0.3-1.2-0.8-2.3-1.4-3.7l-9.5,1.7c-1.3,1-2,1.7-2.9,3C114,35.5,113.5,36.4,112.9,38.3z
			 M163.6,51.6l13,0.2v-1.3h-13L163.6,51.6z M129.7,36.4l0.3,4.1C130.1,39.1,130,37.9,129.7,36.4z"/>
	</g>
	<g>
		<g>
			<path class="st2" d="M56.9,72.2c-1.2,0.1-2.1,0.2-3.2,0.2l2-7.5c0.3-1,0.5-1.8,0.7-2.7l0.4-1.5c1.1-0.1,1.9-0.3,2.9-0.7
				c1.2-0.5,1.9-0.8,3-1.6c1.3-0.8,2.1-1,3.6-1.1c1.2-0.1,4.6,0,5.7,0.3c0,2-2.7,11.4-3.5,14.5c-1.4-0.5-2.1-0.7-3.7-0.9
				c-2-0.2-3.2,0-5.1,0.5C58.6,72,58,72.1,56.9,72.2z"/>
			<path class="st3" d="M49.4,69.9c1.7,0.1,2.7,0.1,4.3,0.2L53,72.5c-1,0.2-1.7,0.2-2.7,0.2c-0.8,0-1.2-0.1-1.9-0.2
				c-1.6,0-2.6-0.1-4.2-0.5c-1.2-0.3-1.9-0.5-3.1-1c-0.3-0.1-0.6-0.1-0.9,0c-0.3,0-0.5,0.1-0.7,0.2l-0.4,0.6
				c-0.1,0.3-0.2,0.4-0.4,0.6c-0.3,0.3-0.6,0.5-1,0.6c-1,0-1.6,0-2.5-0.2c-1-0.1-1.6-0.2-2.5-0.5c-2,0-3.1,0.2-5.1,0.6
				c-1.2,0.3-1.9,0.5-3.1,1l-0.3,0.1c-0.1,0.2-0.1,0.5-0.2,0.7c-0.5,0.6-0.8,1-1.5,1.4c-0.8,0.6-1.4,0.9-2.4,1.1
				c0.6-1,1-1.5,1.9-2.2c0.8-0.6,1.3-0.8,2.1-1c0.3-0.9,0.8-1.6,1.6-2.3c0.6-0.5,1-0.7,1.8-1c1.8-0.3,2.8-0.4,4.6-0.4
				c1.2,0,1.9,0,3.1,0.2c1.1,0.1,1.8,0,2.9-0.1c0.8-0.1,1.3-0.2,2.1-0.5c0.3-0.6,0.1-1.4,0.6-1.3c0.9,0.2,1.2,0.2,1.9,0.3l1.6,0.3
				C46.3,69.7,47.4,69.8,49.4,69.9z"/>
			<path class="st3" d="M54.8,65.8l-0.6,2.1c-1.1,0-1.9,0-3.1-0.2c-1.3-0.1-2-0.2-3.3-0.5c-1.5-0.5-2.3-0.7-3.9-0.8
				c-0.5,0-0.7,0-1.2,0c-0.4,0.4-0.7,0.6-1.2,0.9c-1.1,0.7-1.9,0.9-3.1,0.8c-1.9-0.3-3-0.4-4.9-0.3c-2.2,0.1-3.4,0.3-5.5,0.9
				c-0.4,0.2-0.8,0.3-1.1,0.5c-0.1,0.3-0.2,0.6-0.3,1c-0.3,0.6-0.6,0.9-1.2,1.2c-0.4,0.3-0.7,0.4-1.2,0.5c0.4-0.7,0.8-1,1.3-1.6
				c0.5-0.5,0.9-0.8,1.4-1.1c0.1-0.2,0.2-0.4,0.4-0.7c0.5-0.8,1-1.3,1.8-1.7c1.7-0.7,2.7-0.9,4.5-1.1c1.6-0.2,2.5-0.2,4,0
				c1.9,0.3,3.1,0.3,4.9-0.3c0.4-0.1,0.6-0.2,1-0.4c0.2-0.2,0.3-0.4,0.6-0.5c0.6-0.4,1.1-0.4,1.8-0.1c2.3,0.3,3.7,0.5,6,0.8
				L54.8,65.8z"/>
			<path class="st3" d="M24.8,69.2l0.5-1.9l1.8-1c0.3-0.8,0.5-1.2,0.9-1.9c0.7-1.3,1.2-1.9,2.2-2.9c1.4-0.8,2.4-1.1,4-1.1
				c1.5,0,2.3,0.2,3.7,0.9c1.7-0.2,2.7-0.4,4.4-0.7c1.8-0.4,2.8-0.6,4.5-1.1c2-0.2,3.1-0.2,5.1,0c1.7,0.2,2.8,0.5,4.3,1l-0.8,2.8
				c-1.5-0.8-2.6-1.1-4.4-1.3c-2.4-0.3-3.9-0.2-6.3,0.5c-1.7,1-2.9,1.3-4.8,1.4c-1.4,0.1-2.2,0-3.6-0.5c-1.8-0.6-3.1-0.6-4.9,0
				c-1.4,0.4-2.2,0.9-3.3,1.9c-0.1,1.2-0.5,2-1.3,2.9C26.1,68.8,25.6,69,24.8,69.2z"/>
			<polygon class="st1" points="60.4,70.3 61.6,66.3 58.7,63.8 62.3,64 63.4,59.9 64.4,64 68,63.9 65,66.3 66.1,70 63.3,67.8 			"/>
			<path class="st3" d="M10.6,91.4l2.7-2.3l2.5-2.1c1.7-1.3,3-1.8,5-1.9c1.1-0.1,1.6,0.1,2.7,0.2c2.7,0.3,4.3,0.7,6.8,1.7
				c0.6,0,1,0,1.5-0.3c0.4-0.2,0.6-0.3,1-0.7l0.7-0.9c0.2-0.3,0.4-0.4,0.7-0.6c0.5-0.2,0.8-0.2,1.3,0l5.2,2.7
				c0.7,0.6,1.3,0.8,2.2,0.7c0.9-0.1,1.4-0.4,2-1.1l0.7-0.8c0.6-0.3,1-0.4,1.6-0.6c0.8-0.2,1.3-0.3,2.2-0.4c2-0.2,3.2-0.2,5.2,0
				c1,0.1,1.5,0.1,2.5,0.3c1.7,0.4,2.6,1.1,4.3,1.6c1.5,0.4,2.1,0.6,3.4,0.8c-0.3,1.1-0.3,2.1-0.8,3.3c-2.4-0.6-4.9-1.2-7.1-2.4
				c-1.3-0.7-2.3-0.5-3.8-0.6c-2,0.1-3.1,0.2-5,0.5c-0.6,0.1-1,0.2-1.6,0.3l-2,1.5c-0.8,0.7-1.4,0.9-2.3,0.9c-0.9,0-1.4-0.1-2.2-0.6
				L35.2,88c-0.3-0.1-0.5-0.1-0.8,0c-0.2,0.1-0.3,0.1-0.4,0.2l-0.4,1.3c-0.1,0.6-0.4,1-0.9,1.3c-0.7,0.4-1.3,0.4-2,0
				c-2.8-0.8-4.4-1.1-7.2-1.7c-2.1-0.4-3.3-1.4-5.4-1c-1.3,0.2-1.9,0.8-3.1,1.3C13.3,90.3,12.3,90.7,10.6,91.4z"/>
			<path class="st3" d="M17.5,82.3c0.1-1,0.4-1.6,1-2.4c0.7-0.9,1.4-1.3,2.5-1.4c0.5-0.8,1.1-1.3,2-1.9c1-0.6,1.7-0.9,2.8-1
				c1.9-0.2,3-0.2,4.9-0.2c2,0,3.1,0.1,5.1,0.3c1,0,1.1,0.1,1.5,0c0.4-0.2,0.6-0.5,0.8-0.9l0.3-0.8c0.4-0.3,0.6-0.4,1-0.5
				c0.8-0.2,1.4-0.1,2,0.4c1.7,0.5,2.7,0.7,4.4,0.9c3,0.4,4.7,0.4,7.6,0c3.7-0.2,5.5-0.3,9.3-0.5c1.6-0.1,3.1,0.2,5.2,0.7
				c-0.2,1-0.4,1.9-0.7,3.1c-3.3-0.4-5.4-0.6-9.1-0.8c-2.9-0.1-4.5-0.1-7.3,0.2c-3.7,0.3-5.7,0-9-0.3c-0.6-0.1-0.9-0.4-1.5-0.6
				c-0.6-0.2-0.9-0.2-1.5-0.2c-0.3,0-0.4,0-0.7,0c-0.6,0.2-0.9,0.5-1.1,1.1c-0.3,0.3-0.5,0.4-0.9,0.6c-1.1,0.6-1.3,0.3-3.1,0.2
				c-2.8-0.2-4.4-0.3-7.2-0.2c-1.8,0.1-2.8,0.1-4.6,0.3c-0.4,0.3-0.6,0.7-0.8,1.1c-0.3,0.8-0.5,1.2-1.1,1.7
				C18.7,81.9,18.3,82.2,17.5,82.3z"/>
			<path class="st3" d="M14.9,87.1c0.4-1,0.7-1.5,1.5-2.2c0.6-0.6,1.1-0.9,1.7-1.1c0.1-0.2,0.1-0.5,0.1-0.8c1.2-1,1.9-1.4,3.3-1.9
				c1.5-0.5,2.4-0.7,3.9-0.7c1.6,0.4,2.5,0.5,4,0.7c1.4,0.1,2.1,0.2,3.5,0.2c1.4-0.2,1.5-0.1,2.2-0.5c0.7-0.4,0.7-0.6,1-1.2
				c0.7-0.3,1.2-0.3,1.9-0.2c0.7,0.2,1.1,0.4,1.6,1c1,0.6,1.7,0.8,2.8,0.8c1.2,0,1.9-0.2,3-0.8c1.9-0.4,2.9-0.5,4.8-0.6
				c2.3-0.1,3.6-0.1,6,0.2l6.9,1.1l3.2,0.6l-0.9,3.4l-1.4-0.3c-0.8-0.2-1-0.3-1.8-0.4c-1.5-0.4-2.3-0.6-3.7-0.8
				c-2.1-0.4-3.4-0.6-5.5-0.8c-1.6-0.4-2.6-0.4-4.2-0.2c-0.8,0.1-1.2,0.2-1.9,0.5l-2.8,1.1c-0.7,0.3-1.2,0.5-1.9,0.5
				c-0.9,0-1.4-0.1-2.2-0.5l-2.8-1.6c-0.5-0.3-0.8-0.3-1.3-0.2c-0.4,0.2-0.7,0.4-0.9,0.8c0,0.4-0.2,0.6-0.4,0.8
				c-0.3,0.2-0.6,0.3-0.9,0.2c-2-0.2-3.1-0.3-5.1-0.5c-1.7-0.2-2.6-0.5-4.3-0.5c-1.9,0-3,0.1-4.9,0.5c-0.4,0.1-0.7,0.2-1,0.3
				c-0.1,0.5-0.3,0.9-0.6,1.4C16.8,86.2,16.1,86.7,14.9,87.1z"/>
		</g>
		<g>
			<path class="st1" d="M64.2,84.5c-0.8-0.2-1-0.3-1.8-0.4c-1.5-0.4-2.3-0.6-3.7-0.8c-2.1-0.4-3.4-0.6-5.5-0.8
				c-1.6-0.4-2.6-0.4-4.2-0.2c-0.8,0.1-1.2,0.2-1.9,0.5l-2.8,1.1c-0.7,0.3-1.2,0.5-1.9,0.5c-0.9,0-1.4-0.1-2.2-0.5l-2.8-1.6
				c-0.5-0.3-0.8-0.3-1.3-0.2c-0.4,0.2-0.7,0.4-0.9,0.8c0,0.4-0.2,0.6-0.4,0.8c-0.3,0.2-0.6,0.3-0.9,0.2c-2-0.2-3.1-0.3-5.1-0.5
				c-1.7-0.2-2.6-0.5-4.3-0.5c-1.9,0-3,0.1-4.9,0.5c-0.4,0.1-0.7,0.2-1,0.3c-0.1,0.5-0.3,0.9-0.6,1.4c-0.7,1.1-1.4,1.6-2.5,1.9
				c0,0,0,0,0,0l0,0c0,0,0,0,0,0c-0.5,1.1-4.3,4.3-4.3,4.3h0l2.7-2.3l2.5-2.1c1.7-1.3,3-1.8,5-1.9c1.1-0.1,1.6,0.1,2.7,0.2
				c2.7,0.3,4.3,0.7,6.8,1.7c0.6,0,1,0,1.5-0.3c0.4-0.2,0.6-0.3,1-0.7l0.7-0.9c0.2-0.3,0.4-0.4,0.7-0.6c0.5-0.2,0.8-0.2,1.3,0
				l5.2,2.7c0.7,0.6,1.3,0.8,2.2,0.7c0.9-0.1,1.4-0.4,2-1.1l0.7-0.8c0.6-0.3,1-0.4,1.6-0.6c0.8-0.2,1.3-0.3,2.2-0.4
				c2-0.2,3.2-0.2,5.2,0c1,0.1,1.5,0.1,2.5,0.3c1.7,0.4,2.6,1.1,4.3,1.6c1.5,0.4,2.1,0.6,3.4,0.8c0,0,0,0,0,0c0,0,0,0,0,0
				c0.1-0.6,0.2-1.1,0.3-1.5l0.3-1.2c0-0.1,0.1-0.2,0.1-0.3L64.2,84.5z"/>
			<path class="st1" d="M68,75.1L68,75.1C68,75.1,68,75.1,68,75.1c0-0.7,0.2-1.7,0.5-2.9c0,0,0,0,0,0c0,0,0,0,0,0
				c-1.4-0.5-2.1-0.7-3.7-0.9c-2-0.2-3.2,0-5.1,0.5c-1.1,0.2-1.7,0.4-2.8,0.5c-1.2,0.1-2.1,0.2-3.2,0.2l2-7.5c0.3-1,0.5-1.8,0.7-2.7
				l0.4-1.5c0,0,0,0,0,0c0,0,0,0,0-0.1c-0.1,0-0.2,0-0.3,0c-0.1,0-0.2-0.1-0.4-0.1l-0.8,2.8c-1.5-0.8-2.6-1.1-4.4-1.3
				c-2.4-0.3-3.9-0.2-6.3,0.5c-1.7,1-2.9,1.3-4.8,1.4c-1.4,0.1-2.2,0-3.6-0.5c-1.8-0.6-3.1-0.6-4.9,0c-1.4,0.4-2.2,0.9-3.3,1.9
				c-0.1,1.2-0.5,2-1.3,2.9c-0.6,0.6-1.1,0.8-1.9,1l0,0h0l0,0c0,0-0.5,2.4-0.7,2.9c0.4-0.7,0.8-1,1.3-1.6c0.5-0.5,0.9-0.8,1.4-1.1
				c0.1-0.2,0.2-0.4,0.4-0.7c0.5-0.8,1-1.3,1.8-1.7c1.7-0.7,2.7-0.9,4.5-1.1c1.6-0.2,2.5-0.2,4,0c1.9,0.3,3.1,0.3,4.9-0.3
				c0.4-0.1,0.6-0.2,1-0.4c0.2-0.2,0.3-0.4,0.6-0.5c0.6-0.4,1.1-0.4,1.8-0.1c2.3,0.3,3.7,0.5,6,0.8l2.9,0.4l-0.6,2.1
				c-1.1,0-1.9,0-3.1-0.2c-1.3-0.1-2-0.2-3.3-0.5c-1.5-0.5-2.3-0.7-3.9-0.8c-0.5,0-0.7,0-1.2,0c-0.4,0.4-0.7,0.6-1.2,1
				c-1.1,0.7-1.9,0.9-3.1,0.8c-1.9-0.3-3-0.4-4.9-0.3c-2.2,0.1-3.4,0.3-5.5,0.9c-0.4,0.2-0.8,0.3-1.1,0.5c-0.1,0.3-0.2,0.6-0.3,1
				c-0.3,0.6-0.6,0.9-1.2,1.2c-0.4,0.3-0.7,0.4-1.2,0.5c-0.2,0.4-1.7,2.1-2.9,3.6c0.1-0.1,0.3-0.3,0.5-0.4c0.8-0.6,1.3-0.8,2.1-1
				c0.3-0.9,0.8-1.6,1.6-2.3c0.6-0.5,1-0.7,1.8-1c1.8-0.3,2.8-0.4,4.6-0.4c1.2,0,1.9,0,3.1,0.2c1.1,0.1,1.8,0,2.9-0.1
				c0.8-0.1,1.3-0.2,2.1-0.5c0.3-0.6,0.1-1.4,0.6-1.3c0.9,0.2,1.2,0.2,1.9,0.3l1.6,0.3c2,0.2,3.1,0.4,5.1,0.5
				c1.7,0.1,2.7,0.1,4.3,0.2L53,72.5c-1,0.2-1.7,0.2-2.7,0.2c-0.8,0-1.2-0.1-1.9-0.2c-1.6,0-2.6-0.1-4.2-0.5c-1.2-0.3-1.9-0.5-3.1-1
				c-0.3-0.1-0.6-0.1-0.9,0c-0.3,0-0.5,0.1-0.7,0.2l-0.4,0.6c-0.1,0.3-0.2,0.4-0.4,0.6c-0.3,0.3-0.6,0.5-1,0.6c-1,0-1.6,0-2.5-0.2
				c-1-0.1-1.6-0.2-2.5-0.5c-2,0-3.1,0.2-5.1,0.6c-1.2,0.3-1.9,0.5-3.1,1l-0.3,0.1c-0.1,0.2-0.1,0.5-0.2,0.7c-0.5,0.6-0.8,1-1.5,1.4
				c-0.8,0.6-1.4,0.9-2.4,1.1h0c-1.1,1.5-1.7,2.9-2,4c0.2-0.5,0.4-1,0.9-1.5c0.7-0.9,1.4-1.3,2.5-1.4c0.5-0.8,1.1-1.3,2-1.9
				c1-0.6,1.7-0.9,2.8-1c1.9-0.2,3-0.2,4.9-0.2c2,0,3.1,0.1,5.1,0.3c1,0,1.1,0.1,1.5,0c0.4-0.2,0.6-0.5,0.8-0.9l0.3-0.8
				c0.4-0.3,0.6-0.4,1-0.5c0.8-0.2,1.4-0.1,2,0.4c1.7,0.5,2.7,0.7,4.4,0.9c3,0.4,4.7,0.4,7.6,0c3.7-0.2,5.5-0.3,9.3-0.5
				C64.4,74.3,66,74.6,68,75.1C68,75.1,68,75.1,68,75.1z"/>
			<path class="st1" d="M66.5,81.5C66.5,81.5,66.5,81.5,66.5,81.5c0.3-1.1,0.6-2.3,0.8-3.3l0,0c0,0,0,0,0,0
				c-3.3-0.4-5.4-0.6-9.1-0.8c-2.9-0.1-4.5-0.1-7.3,0.2c-3.7,0.3-5.7,0-9-0.3c-0.6-0.1-0.9-0.4-1.5-0.6c-0.6-0.2-0.9-0.2-1.5-0.2
				c-0.3,0-0.4,0-0.7,0c-0.6,0.2-0.9,0.5-1.1,1.1c-0.3,0.3-0.5,0.4-0.9,0.6c-1.1,0.6-1.3,0.3-3.1,0.2c-2.8-0.2-4.4-0.3-7.2-0.2
				c-1.8,0.1-2.8,0.1-4.6,0.3c-0.4,0.3-0.6,0.7-0.8,1.1c-0.3,0.8-0.5,1.2-1.1,1.7c-0.6,0.6-1.1,0.8-1.9,1c-0.2,0.7-1.3,2.4-2,3.7
				c0.3-0.4,0.6-0.8,1-1.2c0.6-0.6,1.1-0.9,1.7-1.1c0.1-0.2,0.1-0.5,0.1-0.8c1.2-1,1.9-1.4,3.3-1.9c1.5-0.5,2.4-0.7,3.9-0.7
				c1.6,0.4,2.5,0.5,4,0.7c1.4,0.1,2.1,0.2,3.5,0.2c1.4-0.2,1.5-0.1,2.2-0.5c0.7-0.4,0.7-0.6,1-1.2c0.7-0.3,1.2-0.3,1.9-0.2
				c0.7,0.2,1.1,0.4,1.6,1c1,0.6,1.7,0.8,2.8,0.8c1.2,0,1.9-0.2,3-0.8c1.9-0.4,2.9-0.5,4.8-0.6c2.3-0.1,3.6-0.1,6,0.2l6.9,1.1
				L66.5,81.5L66.5,81.5z"/>
		</g>
	</g>
</g>
</svg>
