<svg xmlns="http://www.w3.org/2000/svg" width="40" height="40" viewBox="0 0 40 40">
  <defs>
    <style>
      .cls-1 {
        fill: #024a91;
        fill-rule: evenodd;
      }
    </style>
  </defs>
  <path id="maritime_icon" data-name="maritime icon" class="cls-1" d="M806.49,1371.98a2.387,2.387,0,1,0-2.387,2.39A2.388,2.388,0,0,0,806.49,1371.98Zm-2.387,1.2a1.2,1.2,0,1,1,1.194-1.2A1.2,1.2,0,0,1,804.1,1373.18Zm-5.369,8.35h3.58v16.1a0.6,0.6,0,1,0,1.193,0v-21.65a0.6,0.6,0,0,0-.426-0.57,3.58,3.58,0,1,1,2.045,0,0.6,0.6,0,0,0-.4.74,0.588,0.588,0,0,0,.742.4,4.774,4.774,0,1,0-3.153-.15v3.93h-3.58A0.6,0.6,0,0,0,798.734,1381.53Zm23.259,12.42-1.193-7.15a0.608,0.608,0,0,0-.389-0.47,0.589,0.589,0,0,0-.594.12l-5.615,4.94a0.6,0.6,0,0,0,.394,1.05h0l1.543-.01c-1.01,2.35-3.668,6.29-10.251,6.91v-17.81h3.58a0.6,0.6,0,0,0,0-1.2h-3.58v-2.08a0.6,0.6,0,1,0-1.193,0v21.73a0.592,0.592,0,0,0,.187.43,0.568,0.568,0,0,0,.445.16c2.239-.13,9.744-1.13,12.246-8.56a0.588,0.588,0,0,0-.565-0.78H816.19l3.61-3.18,0.774,4.65-0.832-.62a0.614,0.614,0,0,0-.542-0.08,0.58,0.58,0,0,0-.383.39c-0.863,2.83-4.023,9.42-14.714,9.42s-13.851-6.59-14.713-9.42a0.582,0.582,0,0,0-.383-0.39,0.613,0.613,0,0,0-.542.08l-0.832.62,0.774-4.65,3.611,3.18h-0.824a0.588,0.588,0,0,0-.565.78c2.5,7.43,10,8.43,12.246,8.56a0.6,0.6,0,1,0,.07-1.19c-7.047-.41-9.842-4.53-10.882-6.96l1.543,0.02h0a0.6,0.6,0,0,0,.394-1.05l-5.615-4.94a0.589,0.589,0,0,0-.594-0.12,0.607,0.607,0,0,0-.389.47l-1.193,7.15a0.6,0.6,0,0,0,.276.61,0.583,0.583,0,0,0,.667-0.03l1.356-1c3.2,8.77,12.689,9.47,15.59,9.47s12.392-.7,15.59-9.47l1.357,1a0.581,0.581,0,0,0,.666.03A0.6,0.6,0,0,0,821.993,1393.95Z" transform="translate(-784.11 -1365.11)"/>
</svg>
