<svg xmlns="http://www.w3.org/2000/svg" width="30.03" height="30" viewBox="0 0 30.03 30">
  <defs>
    <style>
      .cls-1 {
        fill: #fff;
        fill-rule: evenodd;
      }
    </style>
  </defs>
  <path id="Forma_1_copy_2" data-name="Forma 1 copy 2" class="cls-1" d="M1254.94,33.216c0.26-2.035-.18-3.5-1.31-4.363-2.49-1.885-8.06-.607-17.02,3.91a47.782,47.782,0,0,0-8.71,5.435c-1.4,1.138-3.04,2.7-2.91,3.673,0.13,0.933,1.37,1.09,2.29,1.127a13.987,13.987,0,0,0,1.45-.026l0.21,1.506a1.39,1.39,0,0,0,.52.911,1.286,1.286,0,0,0,.77.262,1.344,1.344,0,0,0,.23-0.02,23.477,23.477,0,0,1,4.72-.393c3.24,2.493,8,3.758,14.16,3.758,0.86,0,1.58-.022,2.16-0.041,0.37-.011.65-0.02,0.86-0.02a1.287,1.287,0,0,0,1.34-.719c0.44-1.081-.92-2.867-1.85-3.924l-0.33-4.878C1252.17,38.676,1254.61,35.754,1254.94,33.216Zm-26.06,7.732a0.515,0.515,0,0,0-.35.576l0.05,0.41c-0.27.017-.66,0.034-1.06,0.026a3.073,3.073,0,0,1-1.53-.261c0.09-.279.69-1.216,2.7-2.818a48,48,0,0,1,8.35-5.178c10.57-5.323,14.53-5.116,16-4,0.83,0.625,1.12,1.73.91,3.378-0.28,2.146-2.44,4.792-3.11,5.563-0.08-.017-0.17-0.036-0.28-0.057a5.377,5.377,0,0,0,.15-1.013,4.277,4.277,0,0,0-.67-2.561,2.705,2.705,0,0,0-2.17-1.221,3.463,3.463,0,0,0-3.47,3.481,3.967,3.967,0,0,0,.07.915A58.916,58.916,0,0,0,1228.88,40.948Zm20.83-3.418c-0.07,1.81-1.11,2.452-1.98,2.452h-0.09a2.232,2.232,0,0,1-1.62-.812,2.673,2.673,0,0,1-.62-1.858,2.454,2.454,0,0,1,2.34-2.48l0.09,0C1248.81,34.872,1249.77,35.722,1249.71,37.53ZM1235.37,44.2h0a24.14,24.14,0,0,0-5.08.4,0.313,0.313,0,0,1-.24-0.057,0.307,0.307,0,0,1-.12-0.217l-0.35-2.5a56.969,56.969,0,0,1,15.26-2.6,3.98,3.98,0,0,0,.43.638,3.21,3.21,0,0,0,2.33,1.165c0.04,0,.08,0,0.13,0h0a2.691,2.691,0,0,0,2.16-1.038,3.166,3.166,0,0,0,.28-0.417q0.21,0.037.36,0.069l0.17,2.514c-0.58-.034-1.86-0.092-3.76-0.092h-0.15a113.314,113.314,0,0,0-11.37.626,0.512,0.512,0,0,0-.45.571,0.5,0.5,0,0,0,.5.47l0.05,0a98.606,98.606,0,0,1,15.25-.523l0.06,0.873a47.419,47.419,0,0,1-6.96.378c-4.26,0-8.44-.252-8.49-0.255h-0.01Zm1.81,1.137c1.64,0.074,4.15.162,6.69,0.162,2.39,0,4.35-.077,5.86-0.23l1.15,2.658c-0.45.012-.97,0.023-1.54,0.023C1244.25,47.951,1240.17,47.073,1237.18,45.337Zm15.6,2.465a0.626,0.626,0,0,1-.42.088q-0.165,0-.39.006l-1.2-2.754c0.14-.021.28-0.043,0.41-0.065C1252.48,46.566,1252.87,47.581,1252.78,47.8Zm-5.16-9.283c-0.9-.33-0.61-1.925-0.6-1.946a0.532,0.532,0,0,0-.4-0.615,0.5,0.5,0,0,0-.59.408,4.784,4.784,0,0,0-.03,1.255,2.61,2.61,0,0,0,.32,1.056,1.85,1.85,0,0,0,.97.827,0.512,0.512,0,0,0,.17.029,0.494,0.494,0,0,0,.47-0.35A0.531,0.531,0,0,0,1247.62,38.519Z" transform="translate(-1225 -23.5)"/>
</svg>
