<svg xmlns="http://www.w3.org/2000/svg" width="40" height="40" viewBox="0 0 40 40">
  <defs>
    <style>
      .cls-1 {
        fill: #004990;
        fill-rule: evenodd;
      }
    </style>
  </defs>
  <path id="online_library_icon" class="cls-1" d="M420.581,1737.75a0.518,0.518,0,0,0,.526.52h12.5a5.661,5.661,0,0,1-1.148-1.04H421.107A0.518,0.518,0,0,0,420.581,1737.75Zm17.762,1.46a6.822,6.822,0,0,1-.908.13,10.812,10.812,0,0,0,.567,1.56H416.566v-6.31H431.19a5.96,5.96,0,0,1-.115-1.34h-14.8a0.733,0.733,0,0,0-.731.74v7.52a0.733,0.733,0,0,0,.731.74H438.8a0.739,0.739,0,0,0,.741-0.74,0.662,0.662,0,0,0-.042-0.22Zm-22.138-7.18h15.036c0-.02.007-0.04,0.012-0.07a6.184,6.184,0,0,1,.491-1.27H416.489v-6.32H437.68a5.547,5.547,0,0,0-.635,2.64H421.03a0.525,0.525,0,0,0,0,1.05h13.458a5.916,5.916,0,0,1,2.517-.57,6.5,6.5,0,0,1,1.171.12,3.909,3.909,0,0,1,1.061-3.32,0.731,0.731,0,0,0,.163-0.8,0.723,0.723,0,0,0-.68-0.45H416.205a0.731,0.731,0,0,0-.733.73v7.53A0.73,0.73,0,0,0,416.205,1732.03Zm-0.033-10.41H438.69a0.74,0.74,0,0,0,.741-0.74,0.684,0.684,0,0,0-.17-0.46c-0.317-.54-2.392-4.21-0.058-6.54a0.734,0.734,0,0,0-.518-1.26H416.172a0.734,0.734,0,0,0-.737.73v7.53A0.736,0.736,0,0,0,416.172,1721.62Zm0.282-7.66h21.191a5.5,5.5,0,0,0-.635,2.63H420.994a0.527,0.527,0,0,0-.526.53,0.519,0.519,0,0,0,.526.52h16.094a10.176,10.176,0,0,0,.8,2.64H416.454v-6.32Zm37.682,24.46-5.967-21.71,0-.01a0.75,0.75,0,0,0-.906-0.52,0.773,0.773,0,0,0-.405.29c-0.428.45-3.42,3.42-6.292,1.79a0.74,0.74,0,0,0-.818.06,0.727,0.727,0,0,0-.255.77l5.971,21.71a0.722,0.722,0,0,0,.9.51l7.259-1.99A0.731,0.731,0,0,0,454.136,1738.42Zm-7.46,1.75-5.618-20.43a5.477,5.477,0,0,0,2.708-.09l4.246,15.45a0.519,0.519,0,0,0,.646.36,0.514,0.514,0,0,0,.366-0.64l-4.268-15.52a10.1,10.1,0,0,0,2.325-1.47l5.684,20.67Zm-5.805-9.14a4.675,4.675,0,1,0-2.088,6.65l3.521,6.3,1.522-.84-4.01-6.1A4.68,4.68,0,0,0,440.871,1731.03Zm-2.22,5.4a3.5,3.5,0,1,1,1.215-4.8A3.507,3.507,0,0,1,438.651,1736.43Z" transform="translate(-414.797 -1708.3)"/>
</svg>
