<svg xmlns="http://www.w3.org/2000/svg" width="40" height="40" viewBox="0 0 40 40">
  <defs>
    <style>
      .cls-1 {
        fill: #004990;
        fill-rule: evenodd;
      }
    </style>
  </defs>
  <path id="calc" class="cls-1" d="M1063.71,1713.53a18.929,18.929,0,0,0-13.54-5.65,19.245,19.245,0,0,0,0,38.49,19.12,19.12,0,0,0,19.13-19.21A19.187,19.187,0,0,0,1063.71,1713.53Zm-14.17,31.61a18,18,0,0,1-17.34-17.41h17.34v17.41Zm0-18.62h-17.33a18.028,18.028,0,0,1,17.33-17.41v17.41Zm1.21-17.42a18.016,18.016,0,0,1,17.33,17.42h-17.33V1709.1Zm0,36.05v-17.42h17.33A17.98,17.98,0,0,1,1050.75,1745.15Zm-11.57-9.15h6.27a0.61,0.61,0,0,0,0-1.22h-6.27A0.61,0.61,0,0,0,1039.18,1736Zm22.32-18.72h-7.08a0.605,0.605,0,0,0,0,1.21h7.08A0.605,0.605,0,1,0,1061.5,1717.28Zm0,3.51h-7.08a0.61,0.61,0,0,0,0,1.22h7.08A0.61,0.61,0,1,0,1061.5,1720.79Zm-0.39,12.3a0.6,0.6,0,0,0,0-.86,0.61,0.61,0,0,0-.85,0l-2.29,2.3-2.29-2.3a0.608,0.608,0,1,0-.86.86l2.29,2.3-2.29,2.3a0.622,0.622,0,0,0,0,.86,0.6,0.6,0,0,0,.43.18,0.633,0.633,0,0,0,.43-0.18l2.29-2.3,2.29,2.3a0.6,0.6,0,0,0,.85-0.86l-2.29-2.3h0Zm-22.32-12.84h2.93v2.98a0.6,0.6,0,0,0,.6.6,0.61,0.61,0,0,0,.61-0.6v-2.98h2.93a0.605,0.605,0,0,0,0-1.21h-2.93v-2.91a0.612,0.612,0,0,0-.61-0.61,0.6,0.6,0,0,0-.6.61v2.91h-2.93A0.605,0.605,0,1,0,1038.79,1720.25Z" transform="translate(-1030.14 -1707.13)"/>
</svg>
