<svg xmlns="http://www.w3.org/2000/svg" xmlns:xlink="http://www.w3.org/1999/xlink" width="40" height="40" viewBox="0 0 40 40">
  <defs>
    <style>
      .cls-1 {
        fill: #004990;
        fill-rule: evenodd;
        filter: url(#filter);
      }
    </style>
    <filter id="filter" x="1097" y="1370" width="40.03" height="28" filterUnits="userSpaceOnUse">
      <feFlood result="flood" flood-color="#004990"/>
      <feComposite result="composite" operator="in" in2="SourceGraphic"/>
      <feBlend result="blend" in2="SourceGraphic"/>
    </filter>
  </defs>
  <path id="Forma_1_copy_2" data-name="Forma 1 copy 2" class="cls-1" d="M1136.92,1376.95c0.35-2.71-.24-4.67-1.75-5.81-3.32-2.52-10.74-.81-22.7,5.21a64.28,64.28,0,0,0-11.61,7.25c-1.86,1.51-4.05,3.6-3.87,4.89,0.17,1.25,1.82,1.46,3.06,1.51a18.4,18.4,0,0,0,1.92-.04l0.28,2.01a1.883,1.883,0,0,0,.7,1.22,1.7,1.7,0,0,0,1.03.34,1.514,1.514,0,0,0,.3-0.02,31.217,31.217,0,0,1,6.3-.53c4.32,3.33,10.67,5.01,18.87,5.01,1.14,0,2.11-.03,2.89-0.05q0.72-.03,1.14-0.03a1.693,1.693,0,0,0,1.78-.96c0.59-1.44-1.21-3.82-2.46-5.23l-0.44-6.5C1133.23,1384.23,1136.49,1380.34,1136.92,1376.95Zm-34.75,10.31a0.7,0.7,0,0,0-.47.77l0.08,0.55c-0.37.02-.88,0.04-1.42,0.03a3.972,3.972,0,0,1-2.03-.35c0.11-.37.91-1.62,3.59-3.75a63.939,63.939,0,0,1,11.13-6.91c14.09-7.09,19.38-6.82,21.34-5.34,1.1,0.84,1.5,2.31,1.21,4.51-0.37,2.86-3.25,6.39-4.14,7.42-0.11-.03-0.23-0.05-0.37-0.08a6.379,6.379,0,0,0,.18-1.35,5.651,5.651,0,0,0-.88-3.41,3.6,3.6,0,0,0-2.9-1.63,4.6,4.6,0,0,0-4.62,4.64,4.984,4.984,0,0,0,.09,1.22A78.94,78.94,0,0,0,1102.17,1387.26Zm27.77-4.55c-0.09,2.41-1.48,3.27-2.64,3.26h-0.12a2.966,2.966,0,0,1-2.15-1.08,3.572,3.572,0,0,1-.83-2.48,3.271,3.271,0,0,1,3.12-3.3h0.12C1128.75,1379.16,1130.03,1380.29,1129.94,1382.71Zm-19.11,8.89h0a31.545,31.545,0,0,0-6.78.54,0.388,0.388,0,0,1-.31-0.08,0.417,0.417,0,0,1-.17-0.29l-0.47-3.34a76.016,76.016,0,0,1,20.35-3.47,5.54,5.54,0,0,0,.58.85,4.254,4.254,0,0,0,3.1,1.55,0.97,0.97,0,0,0,.17.01h0a3.562,3.562,0,0,0,2.88-1.39,4.139,4.139,0,0,0,.38-0.55c0.19,0.03.35,0.06,0.49,0.09l0.22,3.35c-0.78-.04-2.49-0.12-5.01-0.12h-0.21a149.067,149.067,0,0,0-15.16.83,0.691,0.691,0,0,0-.6.77,0.672,0.672,0,0,0,.66.62h0.07a131.5,131.5,0,0,1,20.34-.7l0.08,1.17a64.075,64.075,0,0,1-9.28.5c-5.68,0-11.26-.34-11.31-0.34h-0.02Zm2.41,1.52c2.18,0.09,5.53.21,8.92,0.21,3.18,0,5.8-.1,7.81-0.3l1.54,3.54c-0.6.02-1.29,0.03-2.06,0.03C1122.67,1396.6,1117.23,1395.43,1113.24,1393.12Zm20.8,3.28a0.791,0.791,0,0,1-.56.12c-0.15,0-.32,0-0.52.01l-1.6-3.67c0.19-.03.37-0.06,0.55-0.09C1133.65,1394.75,1134.16,1396.11,1134.04,1396.4Zm-6.87-12.37c-1.21-.44-0.82-2.57-0.82-2.6a0.69,0.69,0,0,0-.52-0.82,0.661,0.661,0,0,0-.78.55,5.745,5.745,0,0,0-.06,1.67,3.77,3.77,0,0,0,.44,1.41,2.4,2.4,0,0,0,1.29,1.1,0.6,0.6,0,0,0,.22.04,0.66,0.66,0,0,0,.63-0.47A0.69,0.69,0,0,0,1127.17,1384.03Z" transform="translate(-1097.015 -1364)"/>
</svg>
