<svg xmlns="http://www.w3.org/2000/svg" width="19.06" height="19.063" viewBox="0 0 19.06 19.063">
  <defs>
    <style>
      .cls-1 {
        fill: #fff;
        fill-rule: evenodd;
      }
    </style>
  </defs>
  <path id="search_icon" data-name="search icon" class="cls-1" d="M1461.46,35.978a7.714,7.714,0,0,1,7.73,7.608,7.606,7.606,0,0,1-1.59,4.652l5.42,5.421-1.36,1.36-5.42-5.423a7.6,7.6,0,0,1-12.26-6.011A7.5,7.5,0,0,1,1461.46,35.978Zm0,13.6a5.858,5.858,0,0,0,6.12-6.12,6.12,6.12,0,1,0-12.24,0A5.858,5.858,0,0,0,1461.46,49.579Z" transform="translate(-1453.97 -35.969)"/>
</svg>
