<svg xmlns="http://www.w3.org/2000/svg" width="36" height="36" viewBox="0 0 36 36">
  <defs>
    <style>
      .cls-1 {
        fill: #fff;
        fill-rule: evenodd;
        opacity: 0.8;
      }
    </style>
  </defs>
  <path id="twitter" class="cls-1" d="M1367.41,200.092a7.456,7.456,0,0,1-2.32.881,3.652,3.652,0,0,0-6.31,2.482,3.741,3.741,0,0,0,.09.826,10.381,10.381,0,0,1-7.52-3.791,3.537,3.537,0,0,0-.5,1.824,3.624,3.624,0,0,0,1.63,3.02,3.639,3.639,0,0,1-1.65-.456v0.046a3.63,3.63,0,0,0,2.92,3.558,3.641,3.641,0,0,1-.96.128,3.753,3.753,0,0,1-.69-0.066,3.665,3.665,0,0,0,3.41,2.521,7.345,7.345,0,0,1-4.53,1.553,7.429,7.429,0,0,1-.87-0.05,10.392,10.392,0,0,0,15.98-8.7l-0.02-.47a7.32,7.32,0,0,0,1.83-1.877,7.386,7.386,0,0,1-2.1.572A3.661,3.661,0,0,0,1367.41,200.092ZM1359,225a18,18,0,1,1,18-18A18,18,0,0,1,1359,225Zm-0.08-35a16.92,16.92,0,1,0,16.92,16.919A16.922,16.922,0,0,0,1358.92,190Z" transform="translate(-1341 -189)"/>
</svg>
