<svg xmlns="http://www.w3.org/2000/svg" width="36" height="36" viewBox="0 0 36 36">
  <defs>
    <style>
      .cls-1 {
        fill: #fff;
        fill-rule: evenodd;
        opacity: 0.8;
      }
    </style>
  </defs>
  <path id="youtube" class="cls-1" d="M1477.15,211.859h-1.17v-0.67a0.549,0.549,0,0,1,.55-0.541h0.08a0.549,0.549,0,0,1,.55.541Zm-4.4-1.435a0.5,0.5,0,0,0-.54.437v3.257a0.5,0.5,0,0,0,.54.436,0.5,0.5,0,0,0,.54-0.436v-3.257A0.5,0.5,0,0,0,1472.75,210.424Zm7.14-1.822V214.8a2.82,2.82,0,0,1-2.91,2.7h-11.97a2.82,2.82,0,0,1-2.91-2.7V208.6a2.82,2.82,0,0,1,2.91-2.7h11.97A2.82,2.82,0,0,1,1479.89,208.6Zm-14.08,6.868v-6.526h1.48v-0.967l-3.95-.006v0.951l1.23,0v6.544h1.24Zm4.45-5.554h-1.24V213.4a6.865,6.865,0,0,1,0,.845c-0.1.271-.55,0.557-0.73,0.029-0.03-.092,0-0.371-0.01-0.85v-3.509h-1.23v3.454c0,0.529-.01.924,0.01,1.1a1.1,1.1,0,0,0,.32.9,1.51,1.51,0,0,0,1.89-.622l-0.01.719,1,0v-5.553h0Zm3.95,3.991v-2.9c0-1.1-.84-1.767-1.98-0.873v-2.156l-1.23,0-0.01,7.443,1.02-.015,0.09-.463C1473.4,216.116,1474.22,215.313,1474.21,213.907Zm3.87-.385-0.92,0c0,0.036-.01.078-0.01,0.124v0.509a0.494,0.494,0,0,1-.5.494h-0.18a0.5,0.5,0,0,1-.51-0.494v-1.339h2.12v-0.788a12.014,12.014,0,0,0-.06-1.478c-0.15-1.039-1.64-1.2-2.38-.672a1.332,1.332,0,0,0-.52.688,3.675,3.675,0,0,0-.16,1.226v1.73C1474.96,216.4,1478.51,216,1478.08,213.522Zm-4.75-9.389a0.817,0.817,0,0,0,.29.37,0.908,0.908,0,0,0,.51.138,0.764,0.764,0,0,0,.47-0.145,1.07,1.07,0,0,0,.35-0.437l-0.02.478h1.38v-5.77h-1.09v4.491a0.45,0.45,0,0,1-.9,0v-4.491h-1.14v3.892c0,0.5.01,0.826,0.03,0.993A1.352,1.352,0,0,0,1473.33,204.133Zm-4.18-3.258a4.861,4.861,0,0,1,.14-1.3,1.4,1.4,0,0,1,.51-0.748,1.459,1.459,0,0,1,.93-0.284,1.742,1.742,0,0,1,.82.182,1.34,1.34,0,0,1,.53.473,1.869,1.869,0,0,1,.26.6,5.427,5.427,0,0,1,.06.945V202.2a8.27,8.27,0,0,1-.06,1.179,1.808,1.808,0,0,1-.27.7,1.327,1.327,0,0,1-.53.48,1.734,1.734,0,0,1-.75.154,2.149,2.149,0,0,1-.8-0.131,1.093,1.093,0,0,1-.51-0.4,1.755,1.755,0,0,1-.25-0.648,5.436,5.436,0,0,1-.08-1.136v-1.528h0Zm1.08,2.291a0.576,0.576,0,0,0,.55.594,0.568,0.568,0,0,0,.54-0.594V200.1a0.568,0.568,0,0,0-.54-0.593,0.576,0.576,0,0,0-.55.593v3.071Zm-3.82,1.551h1.3l0.01-4.424,1.53-3.792h-1.42l-0.82,2.817-0.83-2.824h-1.4l1.63,3.8v4.422ZM1471,225a18,18,0,1,1,18-18A18,18,0,0,1,1471,225Zm-0.08-35a16.92,16.92,0,1,0,16.92,16.919A16.922,16.922,0,0,0,1470.92,190Z" transform="translate(-1453 -189)"/>
</svg>
